<svg xmlns="http://www.w3.org/2000/svg" xmlns:xlink="http://www.w3.org/1999/xlink" width="500" zoomAndPan="magnify" viewBox="0 0 375 374.999991" height="500" preserveAspectRatio="xMidYMid meet" version="1.0"><rect x="-37.5" width="450" fill="#fdfdfd" y="-37.499999" height="449.999989" fill-opacity="1"/><path fill="#e97e10" d="M 192.410156 172.84375 C 196.976562 175.214844 199.929688 178.242188 202.929688 182.40625 C 204.824219 186.648438 205.238281 190.214844 204.839844 194.835938 C 203.65625 199.160156 202.082031 202.90625 199.101562 206.3125 L 200.796875 206.984375 C 204.917969 209.382812 207.179688 213.796875 209.621094 217.789062 C 211.054688 221.074219 211.054688 221.074219 211.535156 223.523438 L 210.578125 226.394531 L 212.492188 226.394531 L 212.492188 230.21875 L 210.578125 230.21875 L 211.117188 232.429688 C 211.535156 235 211.535156 235 210.578125 237.867188 L 207.710938 239.78125 L 206.753906 241.695312 C 204.242188 242.816406 201.714844 243.691406 199.101562 244.5625 C 190.546875 243.636719 183.363281 241.460938 176.265625 236.582031 C 173.492188 234.414062 171.570312 232.074219 169.460938 229.261719 L 167.546875 227.351562 L 167.546875 218.742188 C 169.226562 217.683594 169.226562 217.683594 171.371094 216.832031 C 173.207031 217.390625 173.207031 217.390625 175.097656 218.492188 L 177.207031 219.675781 L 179.378906 220.953125 C 185.960938 224.792969 185.960938 224.792969 193.367188 226.394531 C 193.847656 224.207031 193.847656 224.207031 193.367188 221.613281 L 190.558594 219.28125 L 187.628906 216.832031 C 186.792969 213.664062 186.792969 213.664062 186.671875 211.09375 L 184.992188 210.984375 C 180.1875 210.582031 176.386719 210.066406 172.328125 207.269531 C 169.429688 204.007812 167.019531 200.90625 165.632812 196.75 C 165.226562 192.5625 164.980469 188.308594 166.253906 184.253906 C 168.546875 179.878906 172.011719 176.453125 176.152344 173.800781 C 181.40625 171.464844 186.882812 171.4375 192.410156 172.84375 " fill-opacity="1" fill-rule="nonzero"/><path fill="#fbf473" d="M 196.773438 113.078125 C 201.328125 113.742188 204.742188 114.910156 208.449219 117.703125 C 210.246094 119.429688 211.375 120.882812 212.492188 123.117188 C 213.253906 127.09375 213.367188 130.640625 212.492188 134.59375 C 209.660156 140.433594 205.390625 145.109375 200.957031 149.773438 L 199.183594 151.695312 C 194.175781 157.019531 194.175781 157.019531 190.496094 158.5 C 187.300781 158.179688 184.597656 157.371094 181.890625 155.632812 L 180.933594 152.761719 C 182.0625 148.207031 184.21875 144.480469 186.730469 140.570312 C 189.226562 136.703125 189.226562 136.703125 191.453125 132.679688 C 187.339844 134.289062 183.804688 136.128906 180.097656 138.539062 C 175.484375 141.398438 171.984375 142.070312 166.589844 142.242188 C 165.632812 140.332031 165.632812 140.332031 165.277344 137.820312 C 165.679688 134.1875 166.351562 132.027344 168.363281 128.996094 C 172.726562 124.628906 178.527344 122.101562 183.957031 119.285156 C 186.101562 118.128906 188.082031 116.800781 190.078125 115.410156 C 193.367188 113.554688 193.367188 113.554688 196.773438 113.078125 " fill-opacity="1" fill-rule="nonzero"/><path fill="#ca8bfb" d="M 118.726562 114.109375 C 124.769531 116.800781 129.375 121.445312 134.078125 125.988281 L 136.273438 128.050781 L 137.902344 129.8125 L 137.902344 131.726562 L 139.757812 132.261719 L 141.726562 133.636719 C 142.566406 136.984375 142.566406 136.984375 142.683594 140.332031 L 140.773438 142.242188 C 135.179688 142.019531 131.113281 140.0625 126.308594 137.460938 C 124.992188 136.761719 123.675781 136.0625 122.355469 135.371094 L 120.617188 134.433594 C 118.445312 133.492188 116.328125 133.078125 113.996094 132.679688 L 114.960938 134.363281 C 116.40625 136.882812 117.832031 139.414062 119.257812 141.945312 L 120.777344 144.585938 L 122.214844 147.15625 L 123.550781 149.507812 C 124.636719 152.09375 124.84375 153.8125 124.515625 156.585938 L 122.601562 158.5 C 119.496094 158.859375 119.496094 158.859375 115.910156 158.5 C 109.910156 155.632812 105.5625 150.316406 101.566406 145.113281 C 98.523438 140.273438 95.558594 135.285156 95.289062 129.453125 C 95.878906 125.667969 96.554688 123.429688 98.695312 120.25 C 101.253906 117.609375 103.746094 115.050781 107.292969 113.894531 C 111.230469 113.203125 114.882812 112.96875 118.726562 114.109375 " fill-opacity="1" fill-rule="nonzero"/><path fill="#e97e10" d="M 153.816406 159.421875 C 155.871094 160.328125 157.898438 161.292969 159.898438 162.324219 C 159.554688 164.847656 159.257812 166.671875 157.75 168.753906 L 156.070312 169.976562 C 153.9375 169.804688 153.9375 169.804688 151.53125 169.136719 C 147.160156 168.097656 144.179688 168.019531 139.816406 169.019531 L 137.902344 169.976562 L 137.902344 175.710938 C 139.136719 176.273438 140.371094 176.832031 141.609375 177.386719 L 143.972656 178.453125 C 145.652344 179.171875 147.351562 179.835938 149.074219 180.441406 C 152.988281 181.824219 155.589844 182.867188 158.523438 185.871094 C 160.347656 190.15625 161.035156 194.007812 160.851562 198.664062 C 159.875 201.714844 158.863281 203.515625 156.613281 205.773438 C 154.277344 207.824219 152.339844 209.152344 149.378906 210.136719 C 135.96875 210.957031 135.96875 210.957031 130.96875 208.824219 C 129.105469 207.71875 127.273438 206.5625 125.472656 205.355469 C 126.089844 202.023438 127.480469 199.59375 129.296875 196.75 C 131.734375 197.203125 133.167969 197.738281 135.214844 199.199219 C 138.488281 200.875 140.894531 200.882812 144.515625 200.863281 C 146.800781 200.679688 146.800781 200.679688 149.378906 198.664062 C 149.617188 195.714844 149.617188 195.714844 149.378906 192.925781 C 148.144531 192.363281 146.910156 191.808594 145.671875 191.25 L 143.308594 190.183594 C 141.628906 189.464844 139.925781 188.804688 138.207031 188.195312 C 134.253906 186.796875 131.6875 185.777344 128.757812 182.703125 C 127.027344 178.714844 126.246094 175.285156 126.429688 170.929688 C 127.609375 166.765625 128.902344 164.640625 131.925781 161.546875 C 138.871094 156.871094 146.054688 156.585938 153.816406 159.421875 " fill-opacity="1" fill-rule="nonzero"/><path fill="#f7dc66" d="M 197.191406 206.3125 C 199.640625 206.671875 199.640625 206.671875 202.929688 208.226562 C 206.355469 212.125 208.984375 216.324219 211.054688 221.074219 C 211.535156 223.523438 211.535156 223.523438 210.578125 226.394531 L 212.492188 226.394531 L 212.492188 230.21875 L 210.578125 230.21875 L 211.117188 232.429688 C 211.535156 235 211.535156 235 210.578125 237.867188 L 207.710938 239.78125 L 206.753906 241.695312 C 204.242188 242.816406 201.714844 243.691406 199.101562 244.5625 C 190.546875 243.636719 183.363281 241.460938 176.265625 236.582031 C 173.492188 234.414062 171.570312 232.074219 169.460938 229.261719 L 167.546875 227.351562 L 167.546875 218.742188 C 169.226562 217.683594 169.226562 217.683594 171.371094 216.832031 C 173.207031 217.390625 173.207031 217.390625 175.097656 218.492188 L 177.207031 219.675781 L 179.378906 220.953125 C 185.960938 224.792969 185.960938 224.792969 193.367188 226.394531 C 193.847656 224.207031 193.847656 224.207031 193.367188 221.613281 C 191.917969 220.441406 190.46875 219.277344 188.96875 218.171875 L 187.628906 216.832031 C 186.792969 213.1875 186.792969 213.1875 186.671875 210.136719 L 188.730469 209.542969 L 191.394531 208.761719 L 194.050781 207.988281 C 196.175781 207.46875 196.175781 207.46875 197.191406 206.3125 " fill-opacity="1" fill-rule="nonzero"/><path fill="#e97e10" d="M 287.078125 171.886719 C 291.113281 172.859375 294.136719 174.292969 297.417969 176.847656 C 299.964844 180.121094 301.378906 183.171875 302.378906 187.1875 C 302.617188 190.414062 302.617188 190.414062 302.378906 192.925781 L 301.421875 194.835938 L 276.558594 195.792969 L 279.429688 200.574219 C 282.957031 201.75 286.269531 201.859375 289.945312 201.53125 C 291.226562 200.910156 292.503906 200.273438 293.773438 199.617188 C 296.28125 199.679688 296.28125 199.679688 298.554688 200.574219 C 299.808594 203.027344 299.808594 203.027344 300.464844 205.355469 C 299.273438 206.140625 298.078125 206.914062 296.878906 207.6875 L 294.863281 208.996094 C 291.621094 210.804688 289.058594 211.089844 285.34375 211.332031 C 281.25 211.265625 278.277344 210.175781 274.648438 208.226562 C 271.238281 205.863281 269.222656 203.972656 267.117188 200.394531 C 265.761719 195.804688 265.410156 191.933594 266.039062 187.1875 C 266.863281 183.96875 267.976562 181.320312 269.867188 178.582031 C 275.160156 173.511719 279.652344 171.398438 287.078125 171.886719 " fill-opacity="1" fill-rule="nonzero"/><path fill="#66bdf9" d="M 120.691406 204.398438 L 125.472656 204.398438 C 126.542969 207.496094 126.960938 208.875 126.429688 212.050781 C 124.261719 215.203125 121.867188 217.925781 119.273438 220.722656 C 116.925781 223.457031 115.457031 225.984375 113.996094 229.261719 C 121.109375 227.621094 127.269531 224.6875 133.652344 221.234375 C 135.351562 220.335938 137.105469 219.53125 138.859375 218.742188 L 141.726562 219.699219 C 141.179688 223.539062 140.074219 226.058594 137.902344 229.261719 C 136.261719 230.929688 134.570312 232.546875 132.824219 234.105469 L 130.144531 236.527344 C 126.097656 239.894531 121.964844 243.070312 116.867188 244.5625 C 113.707031 244.921875 111.199219 244.917969 108.175781 243.871094 C 104.894531 242.363281 102.703125 240.929688 100.191406 238.285156 C 98.199219 235.179688 97.480469 232.421875 97.203125 228.785156 C 97.230469 225.496094 97.679688 223.636719 99.210938 220.695312 C 101.929688 216.78125 104.710938 213.070312 108.738281 210.4375 C 112.765625 208.925781 115.472656 208.882812 119.734375 209.179688 Z M 120.691406 204.398438 " fill-opacity="1" fill-rule="nonzero"/><path fill="#bfb1b6" d="M 158.082031 94.828125 C 160.859375 95.683594 162.644531 97.179688 164.679688 99.210938 C 166.5625 102.980469 165.8125 107.523438 165.632812 111.644531 C 164.265625 132.613281 164.265625 132.613281 159.898438 140.332031 C 157.53125 142.066406 157.53125 142.066406 155.117188 143.199219 C 152.605469 143.199219 152.605469 143.199219 150.335938 142.242188 C 145.328125 135.453125 143.476562 125.40625 142.410156 117.171875 C 141.929688 111.410156 141.929688 105.777344 144.238281 100.40625 C 145.710938 98.042969 146.835938 97.054688 149.140625 95.328125 C 152.460938 94.371094 154.707031 94.246094 158.082031 94.828125 " fill-opacity="1" fill-rule="nonzero"/><path fill="#e97e10" d="M 233.554688 172.34375 L 235.441406 172.84375 C 239.171875 177.503906 240.660156 183.910156 242.59375 189.484375 L 243.453125 191.894531 L 244.21875 194.09375 L 245.003906 195.792969 L 246.914062 196.75 L 247.179688 194.472656 C 248.078125 189.972656 249.652344 185.851562 251.277344 181.570312 L 252.234375 179.023438 C 253.007812 176.960938 253.785156 174.902344 254.566406 172.84375 L 263.171875 172.84375 L 264.128906 175.710938 C 263.316406 178.300781 263.316406 178.300781 262.019531 181.40625 L 260.613281 184.816406 L 259.109375 188.382812 L 257.648438 191.90625 C 256.71875 194.144531 255.78125 196.378906 254.839844 198.609375 C 254.113281 200.332031 253.398438 202.058594 252.699219 203.792969 C 252.085938 205.289062 251.433594 206.765625 250.742188 208.226562 C 248.589844 209.660156 248.589844 209.660156 245.960938 210.136719 C 243.722656 209.855469 241.492188 209.535156 239.265625 209.179688 C 237.664062 205.066406 236.066406 200.949219 234.46875 196.832031 L 232.835938 192.636719 C 232.054688 190.617188 231.269531 188.601562 230.488281 186.582031 L 229.757812 184.707031 C 228.359375 181.101562 227.070312 177.476562 225.878906 173.800781 C 228.382812 172.546875 230.796875 172.539062 233.554688 172.34375 " fill-opacity="1" fill-rule="nonzero"/><path fill="#31e5f6" d="M 155.59375 215.875 C 158.941406 216.832031 158.941406 216.832031 161.570312 218.984375 L 163.722656 221.613281 L 165.457031 223.703125 C 167.179688 227.792969 167.089844 231.582031 166.589844 235.957031 C 165.695312 239.621094 164.148438 242.1875 161.570312 244.980469 C 158.941406 246.476562 158.941406 246.476562 155.652344 247.011719 C 152.246094 246.476562 152.246094 246.476562 149.140625 244.503906 C 146.199219 241.6875 144.800781 238.933594 143.640625 235 C 143.121094 231.003906 142.996094 227.285156 144.335938 223.4375 C 145.734375 220.753906 147.394531 218.804688 149.675781 216.832031 C 152.246094 215.875 152.246094 215.875 155.59375 215.875 " fill-opacity="1" fill-rule="nonzero"/><path fill="#e97e10" d="M 212.492188 155.632812 C 218.945312 155.511719 218.945312 155.511719 221.097656 156.585938 L 221.097656 209.179688 L 212.492188 209.179688 C 209.972656 204.441406 210.300781 199.699219 210.324219 194.480469 L 210.320312 191.574219 C 210.316406 189.554688 210.320312 187.53125 210.328125 185.507812 C 210.339844 182.417969 210.328125 179.328125 210.316406 176.234375 C 210.316406 174.269531 210.320312 172.300781 210.324219 170.332031 L 210.3125 167.539062 C 210.34375 163.164062 210.386719 159.59375 212.492188 155.632812 " fill-opacity="1" fill-rule="nonzero"/><path fill="#9149bc" d="M 118.726562 114.109375 C 124.769531 116.800781 129.375 121.445312 134.078125 125.988281 L 136.273438 128.050781 L 137.902344 129.8125 L 137.902344 131.726562 L 139.757812 132.261719 L 141.726562 133.636719 C 142.566406 136.984375 142.566406 136.984375 142.683594 140.332031 L 140.773438 142.242188 C 135.179688 142.019531 131.113281 140.0625 126.308594 137.460938 C 124.992188 136.761719 123.675781 136.0625 122.355469 135.371094 L 120.617188 134.433594 C 118.445312 133.492188 116.328125 133.078125 113.996094 132.679688 L 114.960938 134.363281 C 116.40625 136.882812 117.832031 139.414062 119.257812 141.945312 L 120.777344 144.585938 L 122.214844 147.15625 L 123.550781 149.507812 C 124.636719 152.09375 124.84375 153.8125 124.515625 156.585938 L 122.601562 158.5 C 119.496094 158.859375 119.496094 158.859375 115.910156 158.5 C 109.910156 155.632812 105.5625 150.316406 101.566406 145.113281 C 98.523438 140.273438 95.558594 135.285156 95.289062 129.453125 C 95.878906 125.667969 96.554688 123.429688 98.695312 120.25 C 101.253906 117.609375 103.746094 115.050781 107.292969 113.894531 C 111.230469 113.203125 114.882812 112.96875 118.726562 114.109375 M 102.523438 118.335938 C 99.933594 120.703125 98.304688 122.703125 96.96875 125.957031 C 96.382812 128.449219 96.335938 130.148438 96.785156 132.679688 C 100.957031 141.199219 107.796875 149.296875 115.042969 155.40625 C 116.875 156.800781 116.875 156.800781 119.496094 156.765625 L 121.648438 156.585938 C 122.5 154.976562 122.5 154.976562 122.601562 152.761719 C 121.433594 150.726562 120.140625 148.773438 118.71875 146.90625 C 117.917969 145.796875 117.121094 144.6875 116.324219 143.578125 L 115.125 141.917969 C 111.84375 137.300781 108.757812 132.839844 107.421875 127.300781 L 107.304688 125.03125 C 108.804688 124.285156 108.804688 124.285156 111.128906 124.074219 C 113.398438 125.390625 115.589844 126.824219 117.703125 128.378906 C 124.390625 133.050781 131.246094 137.3125 138.859375 140.332031 L 140.773438 139.375 C 140.71875 137.207031 140.71875 137.207031 139.816406 134.59375 C 138.109375 132.328125 136.117188 130.402344 134.078125 128.4375 L 132.382812 126.777344 C 127.488281 122.070312 122.433594 117.644531 115.910156 115.46875 C 110.671875 115.066406 107.125 115.78125 102.523438 118.335938 " fill-opacity="1" fill-rule="nonzero"/><path fill="#b98f9c" d="M 157.027344 94.429688 L 157.027344 97.300781 L 153.382812 97.957031 C 151.28125 98.449219 151.28125 98.449219 149.378906 99.210938 C 147.371094 101.226562 147.371094 101.226562 146.507812 103.992188 C 145.820312 107.527344 145.820312 107.527344 145.554688 110.6875 L 147.464844 110.6875 L 148.421875 107.820312 L 150.335938 108.773438 C 150.691406 110.855469 150.953125 112.949219 151.171875 115.050781 C 151.917969 120.824219 152.957031 124.902344 156.070312 129.8125 L 158.941406 131.726562 C 160.441406 126.917969 161.28125 122.390625 161.808594 117.382812 L 164.679688 116.425781 C 164.414062 124.605469 163.855469 132.996094 159.898438 140.332031 C 157.527344 142.085938 157.527344 142.085938 155.117188 143.199219 C 152.605469 143.199219 152.605469 143.199219 150.335938 142.242188 C 145.328125 135.453125 143.476562 125.40625 142.410156 117.171875 C 141.929688 111.410156 141.929688 105.777344 144.238281 100.40625 C 145.769531 97.921875 146.804688 97.101562 149.320312 95.386719 C 152.113281 94.476562 154.117188 94.175781 157.027344 94.429688 " fill-opacity="1" fill-rule="nonzero"/><path fill="#fefdf8" d="M 189.539062 181.449219 C 192.011719 183.542969 193.828125 185.246094 195.277344 188.144531 C 195.359375 191.101562 195.039062 193.878906 194.320312 196.75 C 192.230469 199.617188 192.230469 199.617188 189.539062 201.53125 C 186.671875 202.429688 186.671875 202.429688 183.804688 202.488281 C 181.160156 201.75 179.460938 200.9375 177.347656 199.199219 C 176.152344 197.707031 176.152344 197.707031 175.195312 194.835938 C 174.898438 191.671875 174.898438 191.671875 175.195312 188.144531 C 176.757812 185.191406 178.136719 183.109375 180.753906 181.03125 C 184.011719 180.195312 186.300781 180.597656 189.539062 181.449219 " fill-opacity="1" fill-rule="nonzero"/><path fill="#f7d660" d="M 169.460938 127.898438 L 170.414062 131.726562 L 173.164062 131.546875 L 176.152344 131.726562 L 178.066406 134.59375 C 181 133.707031 183.503906 132.878906 186.074219 131.1875 C 189.484375 129.320312 192.371094 129.183594 196.234375 128.855469 C 196.988281 130.386719 196.988281 130.386719 197.191406 132.679688 C 195.851562 134.808594 194.375 136.84375 192.769531 138.777344 C 192.347656 139.304688 191.925781 139.832031 191.496094 140.375 C 188.664062 143.910156 185.75 147.378906 182.847656 150.851562 L 181.890625 147.980469 C 183.160156 145.8125 183.160156 145.8125 185 143.378906 C 187.550781 139.898438 189.695312 136.617188 191.453125 132.679688 C 187.339844 134.289062 183.804688 136.128906 180.097656 138.539062 C 175.484375 141.398438 171.984375 142.070312 166.589844 142.242188 C 165.632812 140.332031 165.632812 140.332031 165.335938 137.761719 C 165.726562 133.601562 167.21875 131.398438 169.460938 127.898438 " fill-opacity="1" fill-rule="nonzero"/><path fill="#1971ae" d="M 120.691406 204.398438 L 125.472656 204.398438 C 126.542969 207.496094 126.960938 208.875 126.429688 212.050781 C 124.261719 215.203125 121.867188 217.925781 119.273438 220.722656 C 116.925781 223.457031 115.457031 225.984375 113.996094 229.261719 C 121.109375 227.621094 127.269531 224.6875 133.652344 221.234375 C 135.351562 220.335938 137.105469 219.53125 138.859375 218.742188 L 141.726562 219.699219 C 141.1875 223.496094 140.1875 226.164062 137.902344 229.261719 C 135.332031 230.996094 135.332031 230.996094 133.121094 232.132812 L 133.121094 229.261719 C 134.351562 227.632812 135.628906 226.039062 136.945312 224.480469 L 137.902344 222.570312 L 135.730469 223.691406 C 121.882812 230.734375 121.882812 230.734375 116.867188 232.132812 C 113.398438 231.890625 113.398438 231.890625 111.128906 231.175781 C 110.433594 229.582031 110.433594 229.582031 110.171875 227.351562 C 111.585938 224.878906 111.585938 224.878906 113.636719 222.210938 L 115.769531 219.40625 C 117.359375 217.410156 119 215.457031 120.691406 213.542969 L 122.601562 211.09375 L 122.601562 207.269531 L 119.734375 208.226562 Z M 120.691406 204.398438 " fill-opacity="1" fill-rule="nonzero"/><path fill="#9048bb" d="M 96.785156 123.117188 L 98.695312 125.03125 L 97.859375 128.257812 C 97.453125 130.363281 97.453125 130.363281 97.742188 132.679688 C 101.742188 140.761719 108.097656 148.605469 115.011719 154.421875 C 116.867188 155.847656 116.867188 155.847656 119.496094 155.8125 L 121.648438 155.632812 C 121.066406 151.816406 119.097656 149.386719 116.867188 146.308594 C 114.460938 142.804688 112.570312 140.050781 112.085938 135.789062 L 112.085938 132.679688 L 113.996094 132.679688 C 115.765625 135.761719 117.511719 138.851562 119.257812 141.945312 L 120.777344 144.585938 L 122.214844 147.15625 L 123.550781 149.507812 C 124.636719 152.09375 124.84375 153.8125 124.515625 156.585938 L 122.601562 158.5 C 119.496094 158.859375 119.496094 158.859375 115.910156 158.5 C 109.910156 155.632812 105.5625 150.316406 101.566406 145.113281 C 98.84375 140.78125 96.28125 136.414062 95.449219 131.308594 C 95.394531 128.347656 95.847656 125.925781 96.785156 123.117188 " fill-opacity="1" fill-rule="nonzero"/><path fill="#4794c7" d="M 117.820312 209.179688 C 116.234375 210.242188 114.632812 211.285156 112.992188 212.265625 C 108.414062 215.097656 104.675781 217.972656 101.589844 222.421875 C 100.1875 225.367188 100.082031 227.875 100.222656 231.101562 C 100.664062 233.371094 101.277344 234.960938 102.523438 236.914062 C 104.113281 238.132812 104.113281 238.132812 105.929688 239.003906 C 109.214844 240.738281 109.214844 240.738281 110.171875 241.695312 C 111.460938 241.914062 112.757812 242.085938 114.058594 242.230469 L 117.820312 242.648438 L 116.867188 244.5625 C 112.765625 244.902344 109.921875 244.703125 106.167969 242.949219 C 102.859375 241.140625 100.753906 239.167969 98.695312 235.957031 C 97.269531 231.671875 96.890625 227.988281 97.742188 223.523438 C 100.152344 218.886719 103.175781 214.871094 107.1875 211.492188 C 110.707031 209.265625 113.726562 208.78125 117.820312 209.179688 " fill-opacity="1" fill-rule="nonzero"/><path fill="#fefbf0" d="M 285.585938 179.71875 C 288.992188 180.492188 288.992188 180.492188 291.320312 182.226562 L 292.816406 184.320312 L 292.816406 188.144531 L 275.601562 188.144531 C 276.558594 183.363281 276.558594 183.363281 277.875 181.6875 C 280.503906 179.664062 282.292969 179.539062 285.585938 179.71875 " fill-opacity="1" fill-rule="nonzero"/><path fill="#eeb835" d="M 171.371094 217.789062 C 176.484375 219.335938 181.0625 221.625 185.765625 224.109375 C 188.503906 225.519531 190.238281 226.394531 193.367188 226.394531 L 195.277344 223.523438 L 197.191406 224.480469 C 198.265625 226.15625 198.265625 226.15625 199.101562 228.304688 C 199.222656 230.9375 199.222656 230.9375 199.101562 233.085938 C 194.070312 232.546875 190.21875 230.871094 185.777344 228.605469 C 185.101562 228.265625 184.425781 227.921875 183.726562 227.574219 C 179.027344 225.132812 175.09375 222.558594 171.371094 218.742188 Z M 171.371094 217.789062 " fill-opacity="1" fill-rule="nonzero"/><path fill="#f4efae" d="M 210.578125 130.769531 L 212.492188 130.769531 C 212.113281 134.722656 211.214844 137.355469 208.953125 140.613281 C 206.511719 143.8125 203.769531 146.726562 201.015625 149.65625 L 199.230469 151.601562 L 197.488281 153.464844 L 195.925781 155.144531 C 194.1875 156.707031 192.667969 157.644531 190.496094 158.5 C 187.867188 158.140625 187.867188 158.140625 185.714844 157.542969 L 186.671875 155.632812 L 188.75 155.417969 C 191.398438 154.890625 191.398438 154.890625 192.90625 153.46875 C 194.464844 151.859375 195.957031 150.207031 197.429688 148.519531 L 198.996094 146.785156 C 201.742188 143.773438 201.742188 143.773438 203.882812 140.332031 L 205.796875 140.332031 Z M 210.578125 130.769531 " fill-opacity="1" fill-rule="nonzero"/><path fill="#a950ed" d="M 108.257812 123.117188 C 111.160156 123.40625 112.996094 124.046875 115.5 125.566406 L 117.941406 127.363281 L 120.398438 129.152344 L 122.601562 130.769531 L 125.472656 132.679688 L 124.515625 134.59375 L 122.765625 133.789062 L 120.453125 132.742188 L 118.167969 131.699219 C 115.695312 130.617188 115.695312 130.617188 112.085938 129.8125 L 113.996094 137.460938 L 111.128906 137.460938 C 110.296875 135.957031 109.484375 134.441406 108.679688 132.921875 L 107.300781 130.367188 C 106.347656 127.898438 106.347656 127.898438 106.621094 125.734375 C 107.304688 124.074219 107.304688 124.074219 108.257812 123.117188 " fill-opacity="1" fill-rule="nonzero"/><path fill="#fcf5cb" d="M 199.101562 111.644531 C 202.03125 113.078125 202.03125 113.078125 203.882812 114.511719 L 201.972656 115.46875 L 200.058594 114.511719 C 197.007812 113.992188 197.007812 113.992188 193.367188 114.511719 C 190.207031 115.980469 187.359375 117.851562 184.460938 119.773438 C 182.933594 120.761719 181.402344 121.746094 179.871094 122.730469 L 177.84375 124.066406 C 176.152344 125.03125 176.152344 125.03125 174.242188 125.03125 C 175.679688 121.445312 177.746094 119.636719 180.753906 117.261719 L 183.222656 115.28125 C 188.351562 111.730469 192.976562 110.878906 199.101562 111.644531 " fill-opacity="1" fill-rule="nonzero"/><path fill="#f8dc65" d="M 192.410156 128.855469 C 195.097656 129.15625 195.097656 129.15625 197.191406 129.8125 C 196.613281 132.722656 195.722656 134.660156 193.976562 137.046875 L 192.597656 138.933594 L 191.152344 140.871094 L 189.746094 142.816406 C 187.398438 146 185.285156 148.710938 181.890625 150.851562 C 182.503906 146.953125 184.589844 143.949219 186.671875 140.691406 C 189.195312 136.761719 189.195312 136.761719 191.453125 132.679688 L 187.628906 131.726562 C 189.71875 130.230469 189.71875 130.230469 192.410156 128.855469 " fill-opacity="1" fill-rule="nonzero"/><path fill="#1971ae" d="M 155.894531 216.175781 L 158.941406 216.832031 L 158.941406 219.699219 L 155.894531 219.402344 L 152.246094 219.699219 C 149.730469 221.777344 147.96875 223.472656 146.507812 226.394531 C 146.441406 228.1875 146.429688 229.980469 146.449219 231.773438 L 146.476562 234.679688 L 146.507812 236.914062 L 144.597656 237.867188 C 143.207031 233.699219 143.164062 229.796875 143.640625 225.4375 C 144.585938 222.667969 145.652344 221.148438 147.464844 218.742188 C 150.582031 216.050781 151.734375 215.832031 155.894531 216.175781 " fill-opacity="1" fill-rule="nonzero"/><path fill="#4693c6" d="M 138.859375 218.742188 L 141.726562 219.699219 C 141.1875 223.496094 140.1875 226.164062 137.902344 229.261719 C 135.332031 230.996094 135.332031 230.996094 133.121094 232.132812 L 133.121094 229.261719 C 134.351562 227.632812 135.628906 226.039062 136.945312 224.480469 L 137.902344 222.570312 L 135.992188 222.570312 L 135.992188 219.699219 Z M 138.859375 218.742188 " fill-opacity="1" fill-rule="nonzero"/><path fill="#f4efae" d="M 169.460938 226.394531 C 171.09375 227.949219 172.6875 229.542969 174.242188 231.175781 L 174.242188 233.085938 L 175.808594 233.828125 C 178.5 235.226562 181.011719 236.828125 183.5625 238.464844 L 186.417969 240.296875 L 188.585938 241.695312 L 186.671875 242.648438 C 180.441406 240.167969 175.09375 235.910156 170.414062 231.175781 C 169.433594 229.921875 168.476562 228.644531 167.546875 227.351562 Z M 169.460938 226.394531 " fill-opacity="1" fill-rule="nonzero"/><path fill="#1971ae" d="M 135.035156 220.65625 L 135.992188 223.523438 C 134.460938 224.351562 132.929688 225.167969 131.390625 225.976562 L 128.800781 227.351562 C 128.015625 227.667969 127.234375 227.980469 126.429688 228.304688 L 123.558594 227.351562 C 124.753906 226.589844 125.949219 225.835938 127.144531 225.078125 L 129.164062 223.800781 C 131.082031 222.644531 133.019531 221.628906 135.035156 220.65625 " fill-opacity="1" fill-rule="nonzero"/><path fill="#4794c7" d="M 128.339844 234.042969 L 130.253906 234.042969 C 129.714844 235.65625 129.714844 235.65625 128.339844 237.867188 C 126.234375 239.660156 124.042969 241.269531 121.648438 242.648438 L 119.734375 242.648438 L 119.734375 240.738281 C 121.550781 239.085938 121.550781 239.085938 123.917969 237.269531 L 126.269531 235.441406 Z M 120.691406 204.398438 L 125.472656 204.398438 L 126.429688 209.179688 L 123.558594 210.136719 L 122.601562 207.269531 L 119.734375 208.226562 Z M 120.691406 204.398438 " fill-opacity="1" fill-rule="nonzero"/><path fill="#fbf4c7" d="M 190.496094 218.742188 C 192.410156 219.878906 192.410156 219.878906 194.320312 221.613281 C 194.5625 224.183594 194.5625 224.183594 194.320312 226.394531 C 192.707031 226.992188 192.707031 226.992188 190.496094 227.351562 C 187.867188 226.453125 187.867188 226.453125 185.714844 225.4375 L 186.671875 223.523438 L 192.410156 225.4375 C 191.867188 223.179688 191.230469 220.949219 190.496094 218.742188 " fill-opacity="1" fill-rule="nonzero"/></svg>